# xmcd
#
# Track frame offsets:
#   150
#   13592
#   26650
#   39496
#   49658
#   59373
#   75609
#   84699
#   96868
#   109912
#   126782
#   141812
#   154357
#   164905
#
# Disc length: 2382 seconds
#
# Revision: 0
# Processed by: cddbd v1.5.1PL2 Copyright (c) Steve Scherf et al.
# Submitted via: uFREEDB ActiveX Control 1.5
#
DISCID=bd094c0e
DTITLE=Tião Carreiro e Pardinho - Linha de Frente
DYEAR=1900
DGENRE=Folk
TTITLE0=O Mineiro e o Italiano
TTITLE1=Porta Fechada
TTITLE2=Quem ama não esquece
TTITLE3=Linha de frente
TTITLE4=Cantar da siriema
TTITLE5=Ana Rosa
TTITLE6=Jerimu
TTITLE7=Minha Prece
TTITLE8=Geada do Paraná
TTITLE9=Catimbáu
TTITLE10=Punhal da Falsidade
TTITLE11=Prece de amor
TTITLE12=Ondas de amor
TTITLE13=Fujo de ti
EXTD=
EXTT0=
EXTT1=
EXTT2=
EXTT3=
EXTT4=
EXTT5=
EXTT6=
EXTT7=
EXTT8=
EXTT9=
EXTT10=
EXTT11=
EXTT12=
EXTT13=
PLAYORDER=
